# AST/ASF file generated using VICON BodyLanguage
# -----------------------------------------------
:version 1.10
:name VICON
:units
  mass 1.0
  length 0.45
  angle deg
:documentation
   .ast/.asf automatically generated from VICON data using
   VICON BodyBuilder and BodyLanguage model FoxedUp or BRILLIANT.MOD
:root
   order TX TY TZ RX RY RZ
   axis XYZ
   position 0 0 0  
   orientation 0 0 0 
:bonedata
  begin
     id 1 
     name lhipjoint
     direction 0.692814 -0.645514 0.321437 
     length 2.38754 
     axis 0 0 0  XYZ
  end
  begin
     id 2 
     name lfemur
     direction 0.34202 -0.939693 0  
     length 6.41921  
     axis 0 0 20  XYZ
    dof rx ry rz
    limits (-160.0 20.0)
           (-70.0 70.0)
           (-60.0 70.0)
  end
  begin
     id 3 
     name ltibia
     direction 0.34202 -0.939693 0   
     length 6.98247   
     axis 0 0 20   XYZ
    dof rx
    limits (-10.0 170.0)
  end
  begin
     id 4 
     name lfoot
     direction 0.0947186 -0.260237 0.960888   
     length 1.83034   
     axis -90 7.62852e-016 20   XYZ
    dof rx rz
    limits (-45.0 90.0)
           (-70.0 20.0)
  end
  begin
     id 5 
     name ltoes
     direction 1.53538e-011 -4.21952e-011 1   
     length 0.920499   
     axis -90 7.62852e-016 20   XYZ
    dof rx
    limits (-90.0 20.0)
  end
  begin
     id 6 
     name rhipjoint
     direction -0.631686 -0.693949 0.345555   
     length 2.2209  
     axis 0 0 0  XYZ 
  end
  begin
     id 7 
     name rfemur
     direction -0.34202 -0.939693 0   
     length 6.49542   
     axis 0 0 -20   XYZ
    dof rx ry rz
    limits (-160.0 20.0)
           (-70.0 70.0)
           (-70.0 60.0)
  end
  begin
     id 8 
     name rtibia
     direction -0.34202 -0.939693 0   
     length 7.21712   
     axis 0 0 -20   XYZ
    dof rx
    limits (-10.0 170.0)
 end
 begin
     id 9 
     name rfoot
     direction -0.0825378 -0.226771 0.970444   
     length 1.89724  
     axis -90 -7.62852e-016 -20   XYZ
    dof rx rz
    limits (-45.0 90.0)
           (-20.0 70.0)
  end
  begin
     id 10 
     name rtoes
     direction -1.53515e-011 -4.22016e-011 1   
     length 0.955868   
     axis -90 -7.62852e-016 -20   XYZ
    dof rx
    limits (-90.0 20.0)
  end
  begin
     id 11 
     name lowerback
     direction -0.0104711 0.984802 -0.173368   
     length 1.84931   
     axis 0 0 0   XYZ
    dof rx ry rz
    limits (-20.0 45.0)
           (-30.0 30.0)
           (-30.0 30.0)
  end
  begin
     id 12 
     name upperback
     direction -0.00286433 0.999996 -0.000382853   
     length 1.85768   
     axis 0 0 0   XYZ
    dof rx ry rz
    limits (-20.0 45.0)
           (-30.0 30.0)
           (-30.0 30.0)
  end
  begin
     id 13 
     name thorax
     direction 0.00167534 0.996793 0.0800069   
     length 1.92   
     axis 0 0 0   XYZ
    dof rx ry rz
    limits (-20.0 45.0)
           (-30.0 30.0)
           (-30.0 30.0)
  end
  begin
     id 14 
     name lowerneck
     direction -0.0672491 0.995415 0.068018   
     length 1.58923   
     axis 0 0 0   XYZ
    dof rx ry rz
    limits (-20.0 45.0)
           (-30.0 30.0)
           (-30.0 30.0)
  end
  begin
     id 15 
     name upperneck
     direction 0.0958019 0.982476 -0.159884   
     length 1.60189   
     axis 0 0 0   XYZ
    dof rx ry rz
    limits (-20.0 45.0)
           (-30.0 30.0)
           (-30.0 30.0)
  end
  begin
     id 16
     name head
     direction 0.032989 0.997338 -0.0650226  
     length 1.61681  
     axis 0 0 0   XYZ
    dof rx ry rz
    limits (-20.0 45.0)
           (-30.0 30.0)
           (-30.0 30.0)
  end
  begin
     id 17 
     name lclavicle
     direction 0.954279 0.298875 -0.00496069  
     length 2.99449  
     axis 0 0 0   XYZ
    dof ry rz
    limits (-20.0 10.0)
           (0.0 20.0)
  end
  begin
     id 18 
     name lhumerus
     direction 1 -4.48985e-011 -4.2057e-027   
     length 4.79185   
     axis 180 -30 -90   XYZ
    dof rx ry rz
    limits (-60.0 90.0)
           (-90.0 90.0)
           (-90.0 90.0)
  end
  begin
     id 19
     name lradius
     direction 1 -4.48945e-011 1.15441e-028   
     length 2.65553   
     axis 180 -30 -90   XYZ
    dof rx
    limits (-10.0 170.0)
  end
  begin
     id 20
     name lwrist
     direction 1 -4.4899e-011 4.8894e-028   
     length 1.32777   
     axis -2.56392e-016 90 90   XYZ
    dof ry
    limits (-180.0 0.0)
 end
  begin
     id 21 
     name lhand
     direction 1 -4.48908e-011 9.7788e-028   
     length 0.743904   
     axis -6.23971e-016 90 90   XYZ
    dof rx rz
    limits (-90.0 90.0)
           (-45.0 45.0)
  end
  begin
     id 22 
     name lfingers
     direction 1 -4.49068e-011 1.95576e-027   
     length 0.599754   
     axis -1.24794e-015 90 90   XYZ
    dof rx
    limits (0.0 90.0)
  end
  begin
     id 23
     name lthumb
     direction 0.707107 -6.34883e-011 0.707107   
     length 0.861131   
     axis -90 45 2.85299e-015   XYZ
    dof rx rz
    limits (-45.0 45.0)
           (-45.0 45.0)
  end
  begin
     id 24 
     name rclavicle
     direction -0.957921 0.286916 0.00811568   
     length 3.06817  
     axis 0 0 0   XYZ 
    dof ry rz
    limits (-10.0 20.0)
           (-20.0 0.0)
  end
  begin
     id 25 
     name rhumerus
     direction -1 -4.48971e-011 -3.07942e-027  
     length 4.77254   
     axis 180 30 90   XYZ
    dof rx ry rz
    limits (-90.0 60.0)
           (-90.0 90.0)
           (-90.0 90.0)
  end
  begin
     id 26 
     name rradius
     direction -1 -4.48957e-011 -9.6815e-028   
     length 2.75995   
     axis 180 30 90   XYZ
    dof rx
    limits (-10.0 170.0)
  end
  begin
     id 27 
     name rwrist
     direction -1 -4.48979e-011 4.8894e-028   
     length 1.37997   
     axis -2.56392e-016 -90 -90   XYZ
    dof ry
    limits (-180.0 0.0)
  end
  begin
     id 28
     name rhand
     direction -1 -4.48906e-011 9.7788e-028   
     length 0.701619   
     axis -6.23971e-016 -90 -90   XYZ
    dof rx rz
    limits (-90.0 90.0)
           (-45.0 45.0)
  end
  begin
     id 29
     name rfingers
     direction -1 -4.49018e-011 1.95576e-027   
     length 0.565663   
     axis -1.24794e-015 -90 -90   XYZ
    dof rx
    limits (0.0 90.0)
  end
  begin
     id 30
     name rthumb
     direction -0.707107 -6.34881e-011 0.707107   
     length 0.812183   
     axis -90 -45 -2.85299e-015   XYZ
    dof rx rz
    limits (-45.0 45.0)
           (-45.0 45.0)
  end
:hierarchy
  begin
    root lhipjoint rhipjoint lowerback
    lhipjoint lfemur
    lfemur ltibia
    ltibia lfoot
    lfoot ltoes
    rhipjoint rfemur
    rfemur rtibia
    rtibia rfoot
    rfoot rtoes
    lowerback upperback
    upperback thorax
    thorax lowerneck lclavicle rclavicle
    lowerneck upperneck
    upperneck head
    lclavicle lhumerus
    lhumerus lradius
    lradius lwrist
    lwrist lhand lthumb
    lhand lfingers
    rclavicle rhumerus
    rhumerus rradius
    rradius rwrist
    rwrist rhand rthumb
    rhand rfingers
  end

#!OML:ASF F:\VICON\USERDATA\INSTALL\rory3\rory3.ASF
:FULLY-SPECIFIED
:DEGREES
97
root -11.0959 15.6266 7.895 -181.061 54.9619 -182.702
lowerback 7.96491 -0.717512 -2.9678
upperback -1.46584 -1.25722 -0.027041
thorax -5.94279 -0.515454 1.80295
lowerneck -14.6392 -6.7525 -10.6208
upperneck 27.1394 -7.87645 6.16093
head 12.0479 -3.62173 2.97503
rclavicle -3.57203e-014 -1.09332e-015
rhumerus -38.3781 -11.8972 -78.2432
rradius 18.7353
rwrist 26.8129
rhand -14.404 14.8947
rfingers 7.12502
rthumb 11.7395 -14.7564
lclavicle -3.57203e-014 -1.09332e-015
lhumerus -37.6664 15.2452 75.7805
lradius 16.8066
lwrist -12.984
lhand -12.9148 14.8434
lfingers 7.12502
lthumb 13.1753 44.4071
rfemur -28.4885 9.05355 17.43
rtibia 30.8515
rfoot -4.93022 -18.5508
rtoes 1.54174
lfemur 20.2479 -4.80693 -24.6921
ltibia 14.8442
lfoot 2.62815 6.37549
ltoes -20.3104
98
root -10.9458 15.6355 7.83699 -180.851 55.1048 -182.402
lowerback 7.8323 -0.792916 -2.77803
upperback -1.55526 -1.33334 0.0334896
thorax -5.9599 -0.557717 1.76758
lowerneck -14.7219 -6.6328 -10.765
upperneck 27.278 -7.68334 6.25346
head 12.1113 -3.53536 3.06677
rclavicle -3.48595e-014 7.50412e-015
rhumerus -38.2852 -11.5839 -78.3924
rradius 18.8989
rwrist 26.5608
rhand -14.1332 14.785
rfingers 7.12502
rthumb 12.0007 -14.851
lclavicle -3.48595e-014 7.50412e-015
lhumerus -38.1048 15.3193 75.4567
lradius 17.1055
lwrist -12.7678
lhand -12.7036 14.8129
lfingers 7.12502
lthumb 13.3789 44.3634
rfemur -27.9624 8.91956 17.9447
rtibia 31.0479
rfoot -4.95237 -18.2135
rtoes 1.42583
lfemur 19.09 -4.33935 -24.2813
ltibia 17.636
lfoot 3.73985 6.75048
ltoes -16.2069
99
root -10.7982 15.6521 7.78175 -180.541 55.1288 -181.991
lowerback 7.78232 -0.853608 -2.52372
upperback -1.65633 -1.38668 0.0855557
thorax -6.0394 -0.590117 1.68604
lowerneck -14.6866 -6.57215 -10.7865
upperneck 27.2572 -7.59514 6.25659
head 12.0879 -3.49868 3.08634
rclavicle -6.62962e-014 3.14328e-015
rhumerus -38.2224 -11.1744 -78.6808
rradius 19.131
rwrist 25.998
rhand -14.4171 14.8456
rfingers 7.12502
rthumb 11.7269 -14.8062
lclavicle -6.62962e-014 3.14328e-015
lhumerus -38.4571 15.2011 75.2232
lradius 17.4586
lwrist -12.5645
lhand -12.5462 14.8741
lfingers 7.12502
lthumb 13.5306 44.4145
rfemur -27.3568 8.85738 18.4695
rtibia 31.1876
rfoot -5.42102 -17.783
rtoes 2.89983
lfemur 17.8114 -3.89155 -23.7697
ltibia 20.4769
lfoot 5.26854 7.29494
ltoes -14.1803
100
root -10.6531 15.6683 7.72937 -180.165 55.1692 -181.607
lowerback 7.67705 -0.869171 -2.27356
upperback -1.75953 -1.37946 0.119719
thorax -6.09298 -0.593465 1.57932
lowerneck -14.6489 -6.50544 -10.6829
upperneck 27.2144 -7.50167 6.1556
head 12.0437 -3.45973 3.04571
rclavicle -6.78593e-014 -2.31398e-014
rhumerus -38.135 -10.6777 -79.0742
rradius 19.4533
rwrist 25.0842
rhand -14.6988 15.0141
rfingers 7.12502
rthumb 11.4553 -14.6529
lclavicle -6.78593e-014 -2.31398e-014
lhumerus -38.6245 14.4919 75.4165
lradius 17.918
lwrist -11.6378
lhand -12.2565 14.7862
lfingers 7.12502
lthumb 13.8098 44.3078
rfemur -26.8476 8.826 18.9725
rtibia 31.2783
rfoot -5.80826 -17.3784
rtoes 3.85515
lfemur 16.3276 -3.35257 -23.2458
ltibia 23.4642
lfoot 6.7157 8.25809
ltoes -14.3749
101
root -10.5116 15.6834 7.67748 -179.642 55.1715 -180.976
lowerback 7.64805 -0.96472 -1.93798
upperback -1.84009 -1.46493 0.279374
thorax -6.16128 -0.643447 1.56881
lowerneck -14.661 -6.35813 -10.7172
upperneck 27.1637 -7.25399 6.06615
head 11.9988 -3.36489 3.0559
rclavicle -1.03379e-013 -1.49089e-014
rhumerus -38.022 -10.0666 -79.3722
rradius 19.8907
rwrist 24.2725
rhand -14.7615 15.2801
rfingers 7.12502
rthumb 11.3948 -14.3903
lclavicle -1.03379e-013 -1.49089e-014
lhumerus -38.8277 14.1892 75.5775
lradius 18.4068
lwrist -10.8702
lhand -11.8686 14.66
lfingers 7.12502
lthumb 14.1836 44.1558
rfemur -26.2503 8.86115 19.6196
rtibia 31.3122
rfoot -6.25366 -17.1448
rtoes 4.71044
lfemur 14.8145 -2.89506 -22.5936
ltibia 26.5722
lfoot 7.91341 9.25038
ltoes -13.5276
102
root -10.373 15.6972 7.62685 -179.121 55.0936 -180.342
lowerback 7.66453 -1.04666 -1.63902
upperback -1.92511 -1.53546 0.444772
thorax -6.26045 -0.684142 1.58433
lowerneck -14.5715 -6.23213 -10.6804
upperneck 26.9606 -7.06271 5.95745
head 11.8751 -3.2935 3.03667
rclavicle 4.98041e-014 -5.81445e-015
rhumerus -37.9845 -9.54798 -79.5691
rradius 20.4229
rwrist 23.5351
rhand -14.8055 15.5919
rfingers 7.12502
rthumb 11.3523 -14.0808
lclavicle 4.98041e-014 -5.81445e-015
lhumerus -39.0604 13.9814 75.6552
lradius 18.9062
lwrist -10.3967
lhand -11.8591 14.8835
lfingers 7.12502
lthumb 14.1928 44.3786
rfemur -25.651 9.07051 20.2142
rtibia 31.3343
rfoot -6.89037 -17.211
rtoes 5.93992
lfemur 13.2931 -2.58177 -21.9864
ltibia 29.6769
lfoot 8.98409 10.0722
ltoes -12.0815
103
root -10.2393 15.7045 7.57876 -178.556 54.9436 -179.643
lowerback 7.73278 -1.07185 -1.19011
upperback -1.99074 -1.52109 0.502685
thorax -6.37883 -0.691109 1.39356
lowerneck -14.4565 -6.21325 -10.4549
upperneck 26.682 -7.08118 5.84617
head 11.7292 -3.29851 2.95098
rclavicle 3.5129e-015 -5.7896e-015
rhumerus -37.9643 -8.82258 -80.1069
rradius 21.0932
rwrist 22.1176
rhand -14.6972 15.9334
rfingers 7.12502
rthumb 11.4568 -13.7335
lclavicle 3.5129e-015 -5.7896e-015
lhumerus -39.1651 13.2205 75.9179
lradius 19.5489
lwrist -9.60218
lhand -12.1027 15.1338
lfingers 7.12502
lthumb 13.958 44.6453
rfemur -25.0465 9.17448 20.8774
rtibia 31.3293
rfoot -7.29944 -17.3227
rtoes 6.26248
lfemur 11.775 -2.28033 -21.3311
ltibia 32.7841
lfoot 10.2008 10.5128
ltoes -10.5765
104
root -10.109 15.7085 7.52934 -178.029 54.7333 -178.944
lowerback 7.81844 -1.1148 -0.683126
upperback -2.00004 -1.52401 0.547163
thorax -6.44916 -0.710393 1.1579
lowerneck -14.4418 -6.23183 -10.3372
upperneck 26.4263 -7.14722 5.84046
head 11.6272 -3.32253 2.91421
rclavicle 1.57994e-014 9.2994e-015
rhumerus -37.8504 -7.96647 -80.7648
rradius 21.7783
rwrist 20.3222
rhand -14.6827 16.367
rfingers 7.12502
rthumb 11.4708 -13.2992
lclavicle 1.57994e-014 9.2994e-015
lhumerus -39.146 12.3704 76.3075
lradius 20.2649
lwrist -8.58897
lhand -12.2334 15.1008
lfingers 7.12502
lthumb 13.832 44.6209
rfemur -24.3776 9.07176 21.5844
rtibia 31.2736
rfoot -7.42369 -17.3435
rtoes 5.40346
lfemur 10.2423 -2.06598 -20.7278
ltibia 35.9004
lfoot 11.6529 10.9963
ltoes -9.03623
105
root -9.98068 15.7129 7.48105 -177.538 54.4788 -178.26
lowerback 7.89355 -1.20839 -0.287269
upperback -1.95132 -1.59834 0.69
thorax -6.44554 -0.759081 1.09573
lowerneck -14.5272 -6.21919 -10.368
upperneck 26.1573 -7.124 5.84297
head 11.5397 -3.32064 2.91668
rclavicle 1.14499e-013 1.09953e-014
rhumerus -37.6378 -7.06468 -81.2391
rradius 22.4828
rwrist 18.8314
rhand -14.843 16.3093
rfingers 7.12502
rthumb 11.3161 -13.3654
lclavicle 1.14499e-013 1.09953e-014
lhumerus -39.045 11.7395 76.7701
lradius 20.9229
lwrist -7.59579
lhand -12.3435 15.0967
lfingers 7.12502
lthumb 13.726 44.624
rfemur -23.6534 8.91084 22.2763
rtibia 31.1597
rfoot -7.74227 -17.3319
rtoes 4.8056
lfemur 8.67315 -1.95267 -20.1711
ltibia 38.9443
lfoot 13.1873 11.7554
ltoes -7.64538
106
root -9.85388 15.7193 7.43782 -176.864 54.1904 -177.327
lowerback 8.02654 -1.27368 0.199852
upperback -1.91937 -1.6193 0.891387
thorax -6.49531 -0.782781 1.03844
lowerneck -14.4159 -6.23656 -10.466
upperneck 25.7633 -7.16284 5.9221
head 11.3779 -3.34709 2.95166
rclavicle 4.12071e-015 -7.1314e-015
rhumerus -37.5365 -6.08562 -81.7017
rradius 23.3196
rwrist 17.4552
rhand -14.9284 16.1314
rfingers 7.12502
rthumb 11.2338 -13.5478
lclavicle 4.12071e-015 -7.1314e-015
lhumerus -38.9125 11.0999 77.2596
lradius 21.5228
lwrist -6.69511
lhand -12.5432 15.1321
lfingers 7.12502
lthumb 13.5335 44.6723
rfemur -22.8807 8.8428 23.1332
rtibia 30.989
rfoot -8.20158 -17.4278
rtoes 5.0214
lfemur 7.08207 -1.86515 -19.42
ltibia 41.8736
lfoot 14.7661 12.6173
ltoes -6.59092
107
root -9.73546 15.7216 7.39402 -176.286 54.0543 -176.394
lowerback 8.30545 -1.25411 0.782067
upperback -1.87387 -1.51659 1.03029
thorax -6.62021 -0.75029 0.849348
lowerneck -14.1297 -6.26275 -10.5738
upperneck 25.2499 -7.25652 6.11425
head 11.1478 -3.38855 3.0239
rclavicle -2.95195e-014 -2.70844e-015
rhumerus -37.5206 -5.17465 -82.1939
rradius 24.2216
rwrist 16.0524
rhand -15.0537 15.3101
rfingers 7.12502
rthumb 11.113 -14.3756
lclavicle -2.95195e-014 -2.70844e-015
lhumerus -38.7427 10.5634 77.6482
lradius 22.1081
lwrist -6.06225
lhand -12.7966 15.0081
lfingers 7.12502
lthumb 13.2892 44.5644
rfemur -22.0194 8.82425 23.9932
rtibia 30.7624
rfoot -8.51069 -17.5251
rtoes 5.06401
lfemur 5.57679 -1.66221 -18.7379
ltibia 44.6677
lfoot 16.5086 13.6789
ltoes -4.71354
108
root -9.62671 15.7203 7.34349 -175.676 54.0589 -175.399
lowerback 8.63859 -1.20913 1.55729
upperback -1.82157 -1.35461 1.1348
thorax -6.77349 -0.697188 0.507899
lowerneck -13.8692 -6.27401 -10.5975
upperneck 24.7297 -7.32912 6.24015
head 10.9141 -3.42062 3.06026
rclavicle 1.90049e-014 5.81445e-015
rhumerus -37.4366 -4.52902 -82.5239
rradius 24.9817
rwrist 14.9983
rhand -15.3457 14.1925
rfingers 7.12502
rthumb 10.8314 -15.5082
lclavicle 1.90049e-014 5.81445e-015
lhumerus -38.55 10.2821 77.8825
lradius 22.6627
lwrist -5.64485
lhand -12.8974 14.8516
lfingers 7.12502
lthumb 13.1921 44.4142
rfemur -21.1452 8.6492 24.8506
rtibia 30.4549
rfoot -8.83067 -17.3311
rtoes 5.65796
lfemur 4.09933 -1.32022 -18.1221
ltibia 47.3238
lfoot 18.5195 14.7265
ltoes -2.18212
109
root -9.51607 15.7233 7.29385 -175.157 53.8804 -174.425
lowerback 9.02916 -1.22229 2.26032
upperback -1.74042 -1.2678 1.27119
thorax -6.92476 -0.677419 0.251094
lowerneck -13.7097 -6.30722 -10.6422
upperneck 24.2943 -7.41798 6.368
head 10.7368 -3.45992 3.09759
rclavicle 2.93926e-014 -2.0276e-014
rhumerus -37.2918 -3.83902 -82.8231
rradius 25.6126
rwrist 14.0724
rhand -15.6066 13.8532
rfingers 7.12502
rthumb 10.5796 -15.8605
lclavicle 2.93926e-014 -2.0276e-014
lhumerus -38.3308 10.0771 78.1406
lradius 23.2107
lwrist -5.19781
lhand -12.8742 14.7839
lfingers 7.12502
lthumb 13.2144 44.3451
rfemur -20.1289 8.31506 25.7244
rtibia 30.0994
rfoot -9.23373 -17.1222
rtoes 5.86097
lfemur 2.68184 -1.11421 -17.4876
ltibia 49.8462
lfoot 20.2863 15.9564
ltoes 1.01952
110
root -9.40229 15.7344 7.25152 -174.859 53.6191 -173.694
lowerback 9.44197 -1.24776 2.69488
upperback -1.63916 -1.2228 1.40864
thorax -7.06049 -0.667456 0.152182
lowerneck -13.5686 -6.36635 -10.7845
upperneck 23.874 -7.53545 6.56797
head 10.5807 -3.51287 3.17293
rclavicle -7.09199e-014 5.96354e-015
rhumerus -37.1129 -3.0874 -83.1083
rradius 26.1645
rwrist 13.1634
rhand -15.9755 13.9069
rfingers 7.12502
rthumb 10.2238 -15.8247
lclavicle -7.09199e-014 5.96354e-015
lhumerus -38.0417 9.82136 78.47
lradius 23.7298
lwrist -4.52866
lhand -12.8109 14.828
lfingers 7.12502
lthumb 13.2755 44.3852
rfemur -19.0736 8.11959 26.465
rtibia 29.7261
rfoot -9.67513 -17.127
rtoes 5.68175
lfemur 1.2223 -1.01434 -16.9568
ltibia 52.2405
lfoot 21.5105 17.2342
ltoes 4.87747
111
root -9.28999 15.7442 7.21165 -174.582 53.4766 -173.181
lowerback 9.67143 -1.21856 2.96244
upperback -1.5553 -1.13255 1.51154
thorax -7.10499 -0.629585 0.0995197
lowerneck -13.3634 -6.43426 -10.9429
upperneck 23.391 -7.672 6.79376
head 10.3948 -3.57505 3.25793
rclavicle -5.74767e-015 1.98785e-016
rhumerus -36.7923 -2.72186 -83.2005
rradius 26.5425
rwrist 12.5495
rhand -16.1368 14.0744
rfingers 7.12502
rthumb 10.0682 -15.6648
lclavicle -5.74767e-015 1.98785e-016
lhumerus -37.6272 9.59334 78.7756
lradius 24.1072
lwrist -3.85022
lhand -12.7854 14.847
lfingers 7.12502
lthumb 13.3001 44.4026
rfemur -18.2338 8.05314 27.0419
rtibia 29.3674
rfoot -10.0059 -17.1604
rtoes 5.29894
lfemur -0.395835 -0.888451 -16.6052
ltibia 54.4728
lfoot 21.9796 18.1873
ltoes 7.85159
